<svg width="127" height="20" viewBox="0 0 127 20" fill="none" xmlns="http://www.w3.org/2000/svg">
<path d="M9.5 0.5L11.6329 7.06434H18.535L12.9511 11.1213L15.084 17.6857L9.5 13.6287L3.91604 17.6857L6.04892 11.1213L0.464963 7.06434H7.36712L9.5 0.5Z" fill="#FFF500"/>
<path d="M36.5 0.5L38.6329 7.06434H45.535L39.9511 11.1213L42.084 17.6857L36.5 13.6287L30.916 17.6857L33.0489 11.1213L27.465 7.06434H34.3671L36.5 0.5Z" fill="#FFF500"/>
<path d="M63.5 0.5L65.6329 7.06434H72.535L66.9511 11.1213L69.084 17.6857L63.5 13.6287L57.916 17.6857L60.0489 11.1213L54.465 7.06434H61.3671L63.5 0.5Z" fill="#FFF500"/>
<path d="M90.5 0.5L92.6329 7.06434H99.535L93.9511 11.1213L96.084 17.6857L90.5 13.6287L84.916 17.6857L87.0489 11.1213L81.465 7.06434H88.3671L90.5 0.5Z" fill="#FFF500"/>
<path d="M117.5 0.5L119.633 7.06434H126.535L120.951 11.1213L123.084 17.6857L117.5 13.6287L111.916 17.6857L114.049 11.1213L108.465 7.06434H115.367L117.5 0.5Z" fill="#FFF500"/>
</svg>
